<svg width="48" height="48" viewBox="0 0 48 48" fill="none" xmlns="http://www.w3.org/2000/svg">
  <path d="M24 4C12.9543 4 4 12.9543 4 24C4 35.0457 12.9543 44 24 44C35.0457 44 44 35.0457 44 24C44 12.9543 35.0457 4 24 4ZM20 30C20 31.1046 19.1046 32 18 32C16.8954 32 16 31.1046 16 30V22C16 20.8954 16.8954 20 18 20C19.1046 20 20 20.8954 20 22V30ZM24 16C22.8954 16 22 15.1046 22 14C22 12.8954 22.8954 12 24 12C25.1046 12 26 12.8954 26 14C26 15.1046 25.1046 16 24 16ZM32 30C32 31.1046 31.1046 32 30 32C28.8954 32 28 31.1046 28 30V22C28 20.8954 28.8954 20 30 20C31.1046 20 32 20.8954 32 22V30Z" fill="#999999"/>
</svg>