<svg width="48" height="48" viewBox="0 0 48 48" fill="none" xmlns="http://www.w3.org/2000/svg">
  <path d="M38 6H10C7.79086 6 6 7.79086 6 10V38C6 40.2091 7.79086 42 10 42H38C40.2091 42 42 40.2091 42 38V10C42 7.79086 40.2091 6 38 6ZM20 34C20 35.1046 19.1046 36 18 36C16.8954 36 16 35.1046 16 34V24C16 22.8954 16.8954 22 18 22C19.1046 22 20 22.8954 20 24V34ZM24 14C22.8954 14 22 13.1046 22 12C22 10.8954 22.8954 10 24 10C25.1046 10 26 10.8954 26 12C26 13.1046 25.1046 14 24 14ZM32 34C32 35.1046 31.1046 36 30 36C28.8954 36 28 35.1046 28 34V24C28 22.8954 28.8954 22 30 22C31.1046 22 32 22.8954 32 24V34Z" fill="#667eea"/>
</svg>