<svg width="48" height="48" viewBox="0 0 48 48" fill="none" xmlns="http://www.w3.org/2000/svg">
  <path d="M24 4C13.5059 4 5 12.5059 5 23C5 33.4941 13.5059 42 24 42C34.4941 42 43 33.4941 43 23C43 12.5059 34.4941 4 24 4ZM24 6C33.3888 6 41 13.6112 41 23C41 32.3888 33.3888 40 24 40C14.6112 40 7 32.3888 7 23C7 13.6112 14.6112 6 24 6ZM23 12V14H25V12H23ZM18 18V20H20V18H18ZM28 18V20H30V18H28ZM16.5 22.5L14.5 23.5L15.5 25.5L17.5 24.5L16.5 22.5ZM31.5 22.5L30.5 24.5L32.5 25.5L33.5 23.5L31.5 22.5ZM23 18V28H25V18H23ZM24 30C22.8954 30 22 30.8954 22 32C22 33.1046 22.8954 34 24 34C25.1046 34 26 33.1046 26 32C26 30.8954 25.1046 30 24 30Z" fill="#999999"/>
</svg>